<svg fill="none" height="179" viewBox="0 0 179 179" width="179" xmlns="http://www.w3.org/2000/svg"><circle cx="89.5" cy="89.5" r="89" stroke="#fff"/><g fill="#fff"><path d="m160.275 95.7891.295-5.8754 8.392.4213-.084 1.6795-6.712-.337-.211 4.1959z"/><path d="m162.908 106.234c-.393-.067-.763-.184-1.111-.351-.345-.162-.661-.362-.949-.602-.284-.239-.535-.511-.752-.818-.217-.306-.393-.634-.528-.982-.131-.347-.215-.712-.252-1.095-.042-.384-.029-.772.038-1.165.067-.392.184-.763.351-1.111.162-.3445.362-.6609.602-.9489.243-.2834.517-.5337.824-.7508.306-.217.634-.3929.982-.5276.351-.1301.716-.2163 1.096-.2583.383-.0376.771-.0228 1.163.0443.393.0672.764.1821 1.113.3447.348.1665.664.3692.948.608.283.2426.534.5173.751.8239s.391.6337.521.9807c.131.351.215.716.253 1.095.041.384.029.772-.039 1.165-.067.393-.184.763-.35 1.111-.163.349-.363.665-.602.949s-.512.535-.818.752c-.307.217-.634.391-.981.522-.348.131-.713.215-1.096.252-.383.042-.771.029-1.164-.038zm.281-1.646c.362.062.715.051 1.058-.033.347-.084.659-.225.934-.423.279-.194.516-.441.71-.741.193-.296.32-.625.382-.986.063-.366.052-.721-.032-1.064s-.225-.655-.423-.934c-.194-.279-.441-.5156-.74-.7095-.296-.1933-.625-.3209-.987-.3827-.362-.0619-.715-.0509-1.058.0331-.339.0846-.649.2259-.928.4238-.28.1979-.516.4443-.709.7403-.194.296-.322.627-.384.993-.062.362-.051.714.033 1.058.083.347.224.658.423.934.198.279.443.516.735.708.296.193.624.321.986.383z"/><path d="m160.285 112.374 1.609.488c.22.067.441.088.661.061.223-.022.43-.084.62-.186.19-.101.356-.238.499-.412.145-.168.251-.362.318-.583.067-.22.087-.443.062-.667-.024-.219-.086-.424-.187-.614-.102-.19-.239-.358-.411-.504-.169-.141-.364-.246-.584-.313l-1.61-.488zm-3.701.633.488-1.609 1.609.489.978-3.218-1.609-.489.487-1.604 4.822 1.465c.444.135.836.346 1.173.632.342.288.614.619.818.996.203.38.33.79.38 1.23.049.443.006.887-.129 1.332s-.346.836-.632 1.174c-.288.341-.622.613-1.002.816s-.792.329-1.235.378c-.44.05-.882.008-1.327-.127z"/><path d="m157.103 122.625c-.354-.156-.675-.353-.963-.591-.286-.233-.535-.496-.747-.79-.208-.293-.379-.607-.513-.943-.13-.335-.216-.682-.257-1.042-.042-.36-.037-.725.014-1.095.054-.365.159-.724.315-1.078l1.021-2.316 7.689 3.388-1.021 2.316c-.156.354-.352.673-.588.958-.234.289-.499.54-.793.752s-.61.382-.948.51c-.335.13-.682.216-1.042.258-.357.044-.719.038-1.087-.018-.366-.05-.726-.153-1.08-.309zm.678-1.539c.318.14.643.211.976.212.33.005.646-.052.946-.172.302-.114.577-.286.823-.515.244-.225.436-.497.576-.815l.338-.766-4.611-2.032-.338.766c-.14.318-.213.643-.217.974-.003.336.053.653.169.952.118.303.291.576.517.817.229.246.503.439.821.579z"/><path d="m151.49 124.146.813-1.473 7.357 4.059-.812 1.472z"/><path d="m146.893 131.419.998-1.496 6.4.376-4.6-3.071.933-1.399 6.988 4.666-.998 1.496-6.405-.38 4.605 3.074-.933 1.399z"/><path d="m142.191 138.447c0-.513.088-1.01.263-1.492.177-.48.435-.918.772-1.313.258-.304.547-.562.868-.776.316-.214.649-.382.999-.504.354-.12.716-.196 1.087-.229.375-.03.745-.012 1.11.052.369.068.728.182 1.079.342.349.163.674.374.978.633.303.258.562.545.775.86.212.318.378.653.501 1.003.125.353.201.716.228 1.088.03.374.013.744-.052 1.109-.065.366-.178.721-.339 1.067-.16.351-.369.678-.628.981-.337.396-.729.718-1.178.967-.445.252-.921.419-1.427.501l-.545-1.619c.361-.026.704-.118 1.029-.278.329-.156.612-.374.85-.654.238-.279.408-.588.512-.926.1-.335.137-.673.11-1.015-.025-.339-.115-.667-.271-.984-.152-.315-.368-.591-.648-.829-.282-.241-.593-.413-.931-.516s-.677-.141-1.019-.113c-.341.027-.669.117-.984.27-.317.155-.595.373-.833.652-.137.161-.25.334-.341.518-.091.185-.16.375-.208.57l1.82 1.55-1.052 1.235z"/><path d="m133.031 145.659 4.506-3.781 5.401 6.436-1.288 1.081-4.32-5.148-3.218 2.701z"/><path d="m127.218 154.666c-.218-.333-.386-.683-.501-1.051-.117-.363-.186-.731-.207-1.105-.02-.371.009-.74.085-1.108s.196-.719.358-1.055c.165-.333.374-.644.629-.932.252-.292.545-.547.878-.766s.683-.386 1.051-.502c.363-.117.731-.186 1.105-.207.373-.016.743.014 1.111.09s.72.196 1.056.358c.334.168.647.377.936.626.289.254.543.548.762.881.218.333.387.682.506 1.048.116.368.183.737.202 1.108.016.373-.014.743-.09 1.111s-.197.718-.361 1.051c-.168.335-.378.645-.629.932-.252.292-.545.547-.878.766s-.683.386-1.051.501c-.366.119-.734.188-1.105.208-.371.019-.74-.01-1.108-.086s-.718-.196-1.051-.361c-.332-.165-.643-.374-.931-.629-.292-.252-.548-.545-.767-.878zm1.396-.917c.202.307.45.558.746.751.298.197.613.329.946.395.332.072.674.076 1.026.013.348-.06.675-.191.982-.393.31-.204.562-.453.756-.749.194-.295.325-.611.395-.946.071-.332.076-.674.013-1.026-.06-.348-.191-.675-.393-.982s-.45-.557-.746-.751c-.293-.191-.608-.321-.943-.39-.336-.069-.677-.074-1.026-.013-.348.06-.677.192-.987.396-.307.202-.557.45-.751.746-.197.298-.328.613-.395.946-.069.336-.075.676-.016 1.021.06.348.191.676.393.982z"/><path d="m120.887 156.944.74 1.51c.102.207.238.381.408.524.168.148.354.257.558.327s.418.097.641.083c.222-.008.437-.064.644-.165.206-.101.383-.238.529-.41.145-.167.252-.352.322-.556.069-.204.099-.418.089-.644-.013-.22-.07-.433-.171-.64l-.741-1.51zm-2.989-2.274 1.51-.741.741 1.51 3.019-1.481-.74-1.51 1.505-.737 2.218 4.524c.205.417.318.847.339 1.289.023.446-.034.871-.17 1.277-.139.408-.352.78-.64 1.117-.291.339-.645.61-1.062.815s-.847.317-1.289.338c-.446.023-.873-.035-1.28-.174-.408-.14-.781-.355-1.119-.646-.337-.287-.608-.639-.813-1.057z"/><path d="m111.211 161.584c-.126-.366-.2-.735-.222-1.108-.023-.368 0-.729.072-1.085.073-.351.187-.69.343-1.017.157-.323.353-.622.589-.898.235-.275.506-.52.812-.733.304-.208.639-.376 1.005-.502l2.392-.827 2.744 7.942-2.392.827c-.366.126-.733.199-1.102.219-.372.025-.735.002-1.091-.069-.355-.072-.695-.188-1.019-.349-.323-.157-.622-.353-.898-.589-.274-.231-.516-.501-.726-.809-.212-.303-.381-.637-.507-1.002zm1.589-.549c.114.328.283.615.508.859.222.246.478.439.77.577.289.144.602.229.937.253.331.026.661-.017.99-.131l.791-.273-1.645-4.763-.792.273c-.329.114-.616.281-.862.503-.248.226-.442.483-.582.771-.143.293-.225.605-.248.935-.025.335.02.667.133.996z"/><path d="m106.377 158.487 1.629-.416 2.075 8.143-1.63.415z"/><path d="m97.878 160.083 1.7753-.289 4.0887 4.937-.891-5.459 1.66-.271 1.353 8.293-1.776.29-4.0891-4.944.8911 5.465-1.6594.271z"/><path d="m89.4939 161.416c.3761-.349.8004-.623 1.2728-.823.4726-.196.9684-.305 1.4875-.327.3981-.017.7847.02 1.16.109.3711.086.7207.216 1.0487.39.3281.177.6305.391.907.642.2766.254.5154.537.7163.849.2011.316.3622.657.4833 1.023.1173.367.1843.749.2012 1.147s-.0175.783-.1034 1.154c-.0898.371-.2216.721-.3953 1.049-.1736.332-.3875.634-.6418.907-.2541.276-.5372.515-.8493.716-.312.201-.6493.36-1.0119.477-.3663.121-.7485.19-1.1465.207-.5191.022-1.0225-.046-1.5101-.205-.4875-.156-.9334-.391-1.3378-.706l.8159-1.501c.2647.247.5659.436.9038.566.338.134.6904.193 1.0573.178.3669-.016.7093-.101 1.0272-.255.3141-.154.587-.357.8186-.609.2319-.249.4112-.538.5379-.868.1269-.326.1826-.672.167-1.039-.0157-.371-.1007-.715-.255-1.033-.1542-.318-.3575-.593-.6097-.825-.2523-.231-.5414-.411-.8674-.538-.3299-.126-.6783-.182-1.0451-.166-.2108.009-.4146.043-.6115.102s-.3832.137-.5589.235l.1015 2.388-1.6216.069z"/><path d="m77.7536 159.595 5.8381.724-1.0335 8.338-1.6689-.207.8267-6.669-4.1693-.517z"/><path d="m67.194 161.418c.0969-.386.2416-.746.4342-1.081.1878-.331.412-.631.6727-.9.2598-.265.5508-.494.8731-.688.3222-.193.662-.343 1.0192-.451.3563-.104.7268-.16 1.1114-.168.3856-.012.7717.03 1.1581.127.3865.097.7469.242 1.0812.434.3315.188.6317.412.9005.673.2642.264.4928.557.6858.879.1931.322.3435.662.4513 1.019.103.36.161.731.174 1.113.0083.385-.036.77-.1329 1.157-.0969.386-.2397.747-.4285 1.082-.1926.334-.4187.634-.6785.899-.2635.264-.5564.493-.8787.686-.3222.193-.6615.342-1.0178.446-.3601.103-.7306.159-1.1114.168-.3856.012-.7717-.03-1.1581-.127-.3865-.097-.7469-.242-1.0812-.434-.3353-.189-.6354-.413-.9005-.673s-.4942-.551-.6873-.873c-.193-.323-.3415-.662-.4455-1.018s-.1601-.727-.1684-1.111c-.012-.386.0304-.772.1273-1.159zm1.6198.406c-.0893.357-.1052.709-.0476 1.058.0566.352.1734.673.3503.964.1723.292.4004.547.6845.763.2803.215.5985.368.9547.457.3599.09.7142.107 1.0629.049s.67-.174.9638-.35c.2928-.173.5474-.401.7636-.685.2152-.28.3675-.598.4568-.955.0893-.356.1052-.708.0476-1.057-.0585-.345-.1758-.664-.3518-.958s-.4042-.548-.6845-.763c-.2802-.216-.6004-.368-.9603-.459-.3562-.089-.7086-.105-1.0573-.047-.3525.056-.6737.173-.9637.35-.2938.176-.5479.402-.7622.679-.2153.28-.3675.598-.4568.954z"/><path d="m61.2484 158.318-.6084 1.568c-.0834.215-.12.433-.1097.655.0052.224.0512.435.1381.632s.2113.373.3733.528c.1568.157.3427.277.5575.361.2149.083.4351.121.6606.112.2204-.007.4292-.054.6264-.141.1971-.087.375-.21.5337-.371.1536-.158.2721-.345.3555-.559l.6084-1.568zm-.3529-3.738 1.5677.608-.6085 1.568 3.1354 1.217.6085-1.568 1.5622.606-1.8232 4.698c-.1682.433-.4077.808-.7186 1.123-.3122.318-.6637.565-1.0543.741-.3943.173-.8126.269-1.255.286-.4459.015-.8856-.061-1.3189-.229-.4334-.169-.8076-.408-1.1227-.719-.3188-.312-.5651-.666-.7389-1.06s-.2684-.814-.2839-1.26c-.0169-.443.0588-.88.227-1.314z"/><path d="m51.289 154.355c.183-.341.4043-.645.6639-.914.2542-.267.5362-.495.8458-.683.3078-.185.6345-.331.9802-.438.3438-.103.6969-.162 1.059-.176.3622-.014.7256.02 1.0903.1.3593.083.7093.215 1.05.398l2.2298 1.198-3.9767 7.402-2.2298-1.198c-.3407-.183-.6435-.403-.9086-.661-.2704-.256-.4997-.539-.6881-.849-.1884-.309-.3334-.638-.4351-.985-.1035-.344-.1622-.697-.176-1.059-.0157-.359.0185-.72.1026-1.082.0788-.362.2097-.713.3927-1.053zm1.4814.796c-.1646.306-.2604.625-.2877.956-.0306.329.002.648.0978.957.0905.31.2402.597.4492.86.2055.261.4614.474.7677.639l.7381.396 2.3849-4.439-.7381-.396c-.3063-.165-.6241-.262-.9535-.293-.3347-.029-.6555.002-.9623.095-.3121.094-.597.244-.8548.452-.263.209-.4768.466-.6413.773z"/><path d="m50.3025 148.712 1.4088.918-4.5883 7.039-1.4088-.918z"/><path d="m43.3766 143.575 1.4191 1.105-.8425 6.355 3.3988-4.364 1.3267 1.033-5.1631 6.629-1.4191-1.105.8461-6.36-3.4024 4.369-1.3267-1.034z"/><path d="m36.6982 138.324c.5111.039 1.0005.165 1.4681.376.4648.213.8815.503 1.2502.869.2828.281.5187.589.7077.926.1891.331.3312.675.4264 1.034.0925.362.1408.729.1449 1.102.0013.375-.0443.743-.1369 1.102-.0953.362-.2363.712-.4229 1.05-.1894.335-.4244.644-.7051.926-.2808.283-.5865.519-.9173.708-.3335.186-.6797.327-1.0384.422-.3615.098-.7287.147-1.1016.145-.3756.002-.7431-.044-1.1026-.137-.3594-.092-.7052-.232-1.0373-.418-.3377-.187-.6479-.421-.9306-.701-.3687-.366-.6603-.782-.8746-1.248-.2172-.464-.3474-.951-.3907-1.462l1.6558-.42c-.0014.362.0647.711.1985 1.048.1311.339.3269.638.5875.897.2606.258.5554.452.8846.581.3264.125.6609.188 1.0034.186.3397.002.6737-.063 1.0019-.194.3255-.128.6176-.322.8763-.583.2614-.263.4564-.56.5851-.889.1286-.329.1923-.665.191-1.007-.0012-.343-.066-.677-.1942-1.002-.131-.328-.3268-.622-.5874-.881-.1497-.148-.3131-.275-.4903-.379-.1771-.104-.3611-.188-.5519-.251l-1.6843 1.697-1.1518-1.144z"/><path d="m30.2553 128.743 3.4431 4.77-6.8128 4.917-.9842-1.363 5.4493-3.934-2.4589-3.406z"/><path d="m21.6842 122.21c.3488-.192.7112-.332 1.0871-.419.3706-.088.7431-.129 1.1175-.121.3711.009.737.066 1.0979.171.3609.104.7025.25 1.0248.438.3189.19.6124.423.8806.699.2716.274.5036.585.6961.934.1924.349.3321.711.419 1.087.0884.371.1288.743.1213 1.118-.0129.373-.0715.74-.1758 1.1-.1043.361-.2504.703-.4384 1.025-.1934.321-.4253.616-.6959.886-.2758.268-.5882.498-.9371.691-.3489.192-.7103.334-1.0843.424-.3759.087-.7493.126-1.1204.116-.3729-.013-.7398-.071-1.1007-.176-.3609-.104-.7008-.251-1.0196-.441-.3208-.193-.6144-.426-.8806-.699-.2716-.273-.5037-.585-.6961-.934-.1925-.349-.3321-.711-.419-1.087-.0903-.374-.1308-.746-.1213-1.117.0094-.372.0663-.737.1706-1.098s.2514-.701.4413-1.02.4228-.612.6987-.881c.274-.271.5854-.503.9343-.696zm.8066 1.463c-.3216.177-.5903.405-.8063.685-.2193.282-.3749.586-.4665.913-.097.326-.1278.666-.0925 1.022.0335.351.1389.688.3163 1.01.1792.325.4087.595.6885.811.2797.216.5841.371.9131.467.3256.096.6661.127 1.0213.092.3518-.034.6885-.139 1.01-.316.3215-.178.5903-.406.8062-.686.2126-.278.3664-.581.4615-.91.095-.329.1259-.67.0924-1.022-.0335-.351-.1398-.69-.3191-1.015-.1773-.321-.4059-.59-.6856-.806-.2817-.219-.586-.375-.9132-.466-.329-.096-.6678-.127-1.0161-.096-.3519.034-.6885.139-1.01.317z"/><path d="m19.8954 115.746-1.5631.62c-.2142.085-.3992.207-.5549.365-.1607.156-.2838.333-.3692.531s-.1299.409-.1334.633c-.0086.222.0296.44.1146.654s.2074.401.3672.56c.1548.158.3311.279.5289.364.1978.086.4095.132.6351.139.2205.005.4378-.035.652-.12l1.5631-.62zm2.5006-2.802.6202 1.564-1.5631.62 1.2403 3.126 1.5631-.62.618 1.557-4.6838 1.859c-.4321.171-.8694.25-1.3118.237-.4461-.013-.8662-.102-1.2603-.269-.3956-.171-.75-.413-1.0632-.726-.3147-.316-.5577-.691-.7291-1.123-.1715-.432-.2504-.869-.2368-1.311.0121-.446.1036-.867.2744-1.263.1709-.395.4145-.751.7309-1.065.3128-.313.6852-.556 1.1173-.727z"/><path d="m15.9966 105.75c.374-.098.7477-.144 1.1211-.137.3686.004.7273.055 1.0762.153.3452.099.6747.239.9886.419.3101.181.5937.399.8507.655.257.255.4803.544.6699.866.1848.319.3263.665.4247 1.039l.6435 2.448-8.1263 2.136-.6435-2.448c-.0983-.374-.1436-.745-.1357-1.115.0031-.372.0537-.733.1518-1.082s.2396-.679.4243-.99c.1811-.31.3993-.594.6549-.851.2518-.256.539-.477.8618-.662.318-.189.6639-.332 1.038-.431zm.4275 1.627c-.3363.088-.6348.235-.8957.441-.2619.202-.4732.443-.6337.724-.1653.278-.2729.583-.3229.915-.051.328-.0323.661.0561.997l.213.81 4.8735-1.281-.213-.81c-.0884-.336-.2337-.635-.4358-.897-.2069-.265-.4487-.478-.7254-.64-.2815-.164-.586-.27-.9134-.317-.3323-.05-.6665-.031-1.0027.058z"/><path d="m19.4785 101.329.2898 1.657-8.2767 1.447-.2898-1.656z"/><path d="m18.5036 92.6077.1524 1.7923-5.2367 3.6974 5.5113-.4688.1426 1.6756-8.3722.7118-.1524-1.7921 5.2426-3.6978-5.5172.4692-.1425-1.6756z"/><path d="m17.7972 84.0014c.3183.4019.5588.846.7217 1.3325.159.4862.2295.989.2115 1.5082-.0139.3982-.08.7809-.1982 1.1481-.1143.3635-.2707.702-.4692 1.0156-.2024.3135-.439.5984-.7098.8548-.2747.2562-.5753.4725-.902.6487-.3305.1761-.683.3105-1.0576.403-.3744.0886-.7607.126-1.1589.1122-.3982-.0139-.779-.0779-1.1424-.1922-.3633-.1181-.7018-.2765-1.0154-.475-.3175-.1986-.6024-.4352-.8548-.7098-.2562-.2747-.4724-.5753-.6487-.902-.1763-.3266-.3088-.6752-.3975-1.0457-.0925-.3745-.1319-.7608-.118-1.159.018-.5193.1251-1.0158.3214-1.4898.1924-.4741.4613-.9005.8066-1.2794l1.4335.9293c-.2665.2448-.4777.5306-.6337.8574-.1599.3267-.2462.6735-.2589 1.0404-.0128.367.0455.7149.1748 1.0439.1294.325.3109.6127.5445.8631.2298.2504.5042.4514.8233.6032.3153.1517.6564.2339 1.0233.2466.3709.0129.7208-.0453 1.0497-.1746.3289-.1292.6186-.3107.869-.5443.2505-.2337.4515-.5081.6032-.8233.1518-.3192.2341-.6622.2468-1.0292.0074-.2108-.0109-.4166-.0547-.6175-.0439-.2008-.1075-.3926-.1911-.5753l-2.3892-.083.0564-1.6221z"/><path d="m20.4365 72.7474-1.1684 5.7656-8.2349-1.6687.334-1.6481 6.5868 1.3347.8344-4.1175z"/><path d="m19.4234 61.9638c.3781.1259.7265.2974 1.0453.5147.3163.2123.5986.4587.847.739.2447.2791.4511.5866.6193.9225.1681.3359.2924.6861.3728 1.0504.0767.3632.1047.7368.0838 1.121-.0171.3854-.0886.7671-.2144 1.1452-.1259.378-.2975.7264-.5147 1.0452-.2124.3163-.4587.5987-.739.8471-.2828.2434-.5921.4492-.9281.6174-.3359.1681-.686.2924-1.0504.3728-.3669.0755-.7411.1053-1.1228.0894-.3842-.0209-.7653-.0942-1.1434-.2201-.378-.1258-.727-.2955-1.0471-.5091-.3187-.2173-.6005-.4655-.8452-.7445-.2434-.2828-.4492-.5922-.6173-.9281-.1682-.3359-.2906-.6855-.3673-1.0486-.0755-.3668-.1035-.7405-.0839-1.121.0172-.3854.0887-.7671.2145-1.1451.1259-.3781.2974-.7265.5147-1.0453.2136-.32.4599-.6023.739-.847s.5866-.4511.9225-.6193c.3359-.1681.6855-.2905 1.0486-.3673.3631-.0767.7368-.1046 1.121-.0838.3854.0172.7671.0887 1.1451.2145zm-.5274 1.5844c-.3484-.1159-.6986-.1584-1.0507-.1274-.3557.0298-.6849.122-.9874.2765-.3051.1496-.5761.3578-.8132.6247-.2358.2632-.4118.569-.5277.9174-.1172.3521-.1603.7042-.1293 1.0562.031.3521.1232.6812.2765.9875.1495.3051.3578.5761.6247.8132.2632.2358.569.4117.9174.5277s.6986.1585 1.0506.1274c.3484-.0322.6757-.125.982-.2783.3062-.1533.5773-.3615.8131-.6247.2359-.2632.4124-.5709.5296-.923.116-.3484.1585-.6986.1274-1.0506-.0297-.3558-.1219-.6849-.2764-.9875-.1533-.3063-.3597-.5767-.6192-.8113-.2632-.2359-.569-.4118-.9174-.5278z"/><path d="m22.9804 56.212-1.5152-.7293c-.2077-.0999-.4225-.1534-.6445-.1606-.2239-.0123-.4374.0171-.6408.0883-.2033.0712-.3886.1815-.5558.3307-.1691.1441-.3036.32-.4035.5277-.0999.2076-.1543.4242-.1632.6497-.0106.2203.0197.4321.0909.6355.0712.2033.1806.3904.3282.5611.1457.1655.3224.2983.5301.3982l1.5153.7293zm3.7546-.0593-.7293 1.5153-1.5153-.7293-1.4585 3.0306 1.5153.7293-.7268 1.51-4.5405-2.1853c-.4189-.2016-.7732-.4697-1.0631-.8042-.2933-.3363-.512-.706-.6561-1.1092-.1425-.4066-.2048-.8311-.187-1.2734.0195-.4458.13-.8782.3316-1.297.2016-.4189.4697-.7732.8043-1.063.3362-.2934.7077-.5113 1.1144-.6537.4066-.1424.8329-.2039 1.2787-.1844.4423.0178.8729.1275 1.2917.3291z"/><path d="m27.5791 46.7139c.3263.2076.6137.4507.8624.7293.2475.2732.4538.5712.6189.8938.1618.3206.2833.6572.3645 1.0098.0779.3505.1105.7069.0976 1.0691-.0128.3622-.0729.7222-.1801 1.0799-.1085.3523-.2665.6916-.4741 1.0179l-1.3588 2.1356-7.089-4.5105 1.3588-2.1356c.2076-.3263.4496-.6121.7262-.8575.2753-.2508.5742-.4587.8969-.6238s.6609-.2856 1.0147-.3614c.3505-.0779.7069-.1105 1.0691-.0976.3589.0108.7162.0714 1.0718.1819.3545.1052.6948.2615 1.0211.4691zm-.9028 1.4188c-.2933-.1866-.6041-.3057-.9325-.3572-.3262-.0548-.6468-.0458-.9617.027-.316.0675-.6129.1957-.8906.3848-.2757.1857-.5068.4253-.6934.7186l-.4498.7069 4.2514 2.7051.4498-.7069c.1867-.2933.3074-.6031.3622-.9294.0536-.3317.0456-.6539-.0239-.9666-.0707-.3182-.2-.6135-.3879-.8858-.189-.2777-.4302-.5099-.7236-.6965z"/><path d="m33.4103 45.961-1.0237 1.3342-6.6663-5.1147 1.0237-1.3342z"/><path d="m38.9139 39.5959-1.2104 1.3306-6.272-1.3253 4.0915 3.7221-1.1316 1.244-6.2153-5.6542 1.2105-1.3306 6.2763 1.3292-4.0959-3.726 1.1316-1.244z"/><path d="m44.7606 33.1997c-.0784.5067-.2406.985-.4867 1.4352-.2485.4471-.5694.8406-.9624 1.1803-.3015.2605-.6271.4722-.9768.6351-.3442.1632-.6988.2786-1.0638.3462-.3675.0647-.7373.0848-1.1094.0605-.3746-.0273-.7376-.1008-1.0889-.2206-.3539-.1227-.6921-.2899-1.0145-.5017-.3195-.2144-.6095-.4723-.87-.7737-.2606-.3015-.4725-.6243-.6357-.9686-.1603-.3467-.2743-.7026-.3419-1.0675-.0701-.3679-.0902-.7378-.0604-1.1095.0273-.3746.1008-.7376.2205-1.0889.1198-.3513.2853-.6854.4967-1.0024.2119-.3224.4685-.6139.7699-.8745.3931-.3397.8302-.5986 1.3112-.7768.4784-.1812.974-.2739 1.4866-.2781l.2929 1.683c-.3607-.0291-.7139.0103-1.0596.1181-.3483.1048-.6613.2772-.9391.5173s-.4934.5194-.6468.8377c-.1504.3159-.238.6446-.2629.9862-.0274.3387.0117.6766.1173 1.0139.103.3343.2746.6403.5147.9181.2427.2808.5232.4979.8416.6512.3184.1534.6484.2425.99.2673.3416.0249.6795-.0142 1.0138-.1172.3373-.1056.6448-.2785.9226-.5186.1596-.1379.2982-.2912.4157-.4599s.2149-.3458.2921-.5312l-1.5632-1.8088 1.228-1.0612z"/><path d="m54.7524 27.5145-5.0204 3.0664-4.3796-7.1707 1.4351-.8765 3.5031 5.7355 3.5853-2.1898z"/><path d="m61.6985 19.5361c.1661.3622.2786.7339.3374 1.1152.0607.3761.0734.7505.0382 1.1234-.037.3693-.1208.7301-.2515 1.0822-.1307.3522-.3018.682-.5131.9896-.213.3039-.467.5794-.762.8264-.2934.2505-.6211.4589-.9833.625-.3622.166-.7339.2785-1.1152.3373-.3761.0608-.7506.0735-1.1234.0382-.371-.0405-.7325-.1261-1.0847-.2568s-.682-.3018-.9895-.5131c-.3056-.2166-.5828-.4698-.8318-.7596-.247-.2949-.4535-.6235-.6196-.9857s-.2803-.7331-.3427-1.1127c-.0588-.3813-.0698-.7566-.0329-1.1259.0405-.371.1261-.7325.2568-1.0847.1308-.3522.3026-.6802.5156-.9842.2166-.3055.4706-.581.762-.8264.2933-.2506.6211-.4589.9833-.625.3621-.1661.7339-.2785 1.1151-.3373.3797-.0624.7542-.0751 1.1235-.0382s.7301.1207 1.0822.2514c.3522.1308.6803.3026.9842.5156.304.213.5794.467.8265.762.2505.2934.4588.6211.6249.9833zm-1.5179.6961c-.1531-.3338-.3611-.6187-.6241-.8548-.2646-.2396-.5566-.4173-.8761-.5329-.3175-.1208-.6547-.1768-1.0116-.1678-.3533.0073-.6969.0875-1.0306.2406-.3374.1546-.6241.3635-.8601.6264-.2361.263-.4138.5551-.533.8762-.1208.3175-.1767.6547-.1678 1.0116.0074.3533.0876.6969.2406 1.0306.1531.3338.3611.6187.6241.8548.2613.2325.5525.4084.8736.5276s.6583.1751 1.0117.1678c.3533-.0073.6986-.0883 1.0359-.243.3338-.1531.6187-.3611.8548-.6241.2396-.2646.4173-.5566.5329-.8761.1192-.3211.176-.6565.1703-1.0063-.0074-.3533-.0875-.6969-.2406-1.0306z"/><path d="m68.3773 18.1764-.5009-1.6053c-.0687-.22-.1762-.4136-.3224-.5807-.1437-.172-.311-.3081-.5018-.4081s-.3978-.1602-.6211-.1806c-.2206-.0253-.441-.0036-.661.0651s-.4154.1767-.5863.3241c-.1683.1426-.3025.3093-.4025.5001-.1001.1908-.1621.3984-.1862.6228-.0215.2195.002.4392.0707.6592l.501 1.6053zm2.6055 2.704-1.6053.501-.501-1.6053-3.2105 1.0019.5009 1.6053-1.5997.4992-1.5011-4.8102c-.1385-.4438-.1843-.8857-.1376-1.3259.0457-.4439.1666-.8561.363-1.2365.2001-.3817.4679-.7169.8033-1.0057.3392-.29.7306-.5042 1.1744-.6427.4437-.1385.8857-.1843 1.3258-.1375.4439.0456.8567.1684 1.2383.3685s.7174.4697 1.0074.8089c.2888.3354.5025.725.641 1.1688z"/><path d="m78.8506 14.986c.0696.3804.0867.7565.0514 1.1283-.0321.3673-.1104.7211-.2348 1.0615-.1251.3366-.2893.6545-.4927.9538-.2041.2954-.4434.5615-.7177.7983-.2744.2368-.5793.4375-.9145.602-.3321.16-.6884.2748-1.0688.3444l-2.49.4552-1.5111-8.2654 2.49-.4552c.3804-.0695.7546-.0863 1.1225-.0503.3711.0314.7269.1093 1.0673.2337s.6587.2906.9548.4985c.2955.2041.5616.4434.7984.7178.2361.2705.4345.5737.5952.9097.1638.3314.2805.6873.35 1.0677zm-1.6542.3025c-.0625-.342-.1865-.6509-.3719-.9268-.1816-.2765-.4062-.5055-.6736-.6869-.2643-.186-.5602-.3165-.8877-.3917-.3236-.0758-.6564-.0825-.9984-.02l-.8242.1507.9063 4.9569.8242-.1507c.342-.0625.6512-.1846.9278-.3662.2796-.1861.5105-.411.6927-.6746.1852-.2681.3139-.5637.3859-.8866.0751-.3274.0814-.6621.0189-1.0041z"/><path d="m82.9082 18.8007-1.6738.1618-.8087-8.3633 1.6738-.1618z"/><path d="m91.5069 18.4717-1.7987.0208-3.3041-5.4934.064 5.5309-1.6815.0195-.0973-8.4018 1.7987-.0208 3.3042 5.4992-.0642-5.5367 1.6816-.0195z"/><path d="m100.531 18.4306c-.425.2864-.8868.4921-1.3843.617-.4971.1211-1.0037.1527-1.52.0947-.396-.0444-.7725-.1397-1.1295-.2859-.3535-.1419-.679-.3239-.9764-.546-.297-.2259-.5628-.4837-.7976-.7735-.2343-.2936-.4268-.61-.5774-.9492-.1502-.3431-.257-.7049-.3204-1.0855-.0595-.3801-.0671-.7681-.0226-1.1641.0444-.3959.1376-.7707.2795-1.1242.1458-.3532.3297-.6784.5517-.9758.2225-.3013.4804-.5672.7735-.7976.2936-.2344.6101-.4268.9493-.5774s.6969-.2559 1.0732-.3159c.3805-.0634.7688-.0729 1.1647-.0284.5163.0579 1.0031.203 1.4603.4351.458.2283.863.5292 1.214.9028l-1.037 1.3576c-.224-.2845-.4923-.5171-.8061-.6978-.3134-.1845-.6526-.2973-1.0175-.3382-.3649-.041-.7163-.0097-1.0541.0939-.334.104-.6349.2628-.9026.4765-.2672.2098-.4888.4679-.6647.7744-.1755.3027-.2837.6364-.3247 1.0013-.0414.3688-.0103.7221.0933 1.06.1035.3379.2622.6407.4758.9084.2137.2677.4718.4892.7745.6647.3065.1759.6422.2844 1.0071.3253.2096.0236.4162.0212.6199-.007.2036-.0283.3997-.077.5883-.1462l.2667-2.3758 1.6131.1811z"/><path d="m111.288 21.8579-5.66-1.6031 2.29-8.0844 1.618.4583-1.832 6.4663 4.043 1.1449z"/><path d="m122.069 21.6259c-.154.3676-.351.7021-.592 1.0037-.235.2995-.502.5626-.8.7893-.297.2231-.619.4058-.966.5483-.348.1425-.707.2401-1.076.293-.368.0493-.742.0492-1.124-.0004-.383-.046-.758-.1459-1.126-.2998-.367-.1538-.702-.351-1.004-.5916-.299-.2355-.562-.5023-.789-.8004-.221-.3003-.403-.6242-.546-.9718-.142-.3475-.24-.706-.293-1.0754-.048-.3715-.049-.7469-.005-1.1264.05-.3815.151-.756.305-1.1236.154-.3675.35-.7028.586-1.0059.241-.3016.51-.564.806-.787.301-.2216.624-.4036.972-.5461s.705-.2383 1.073-.2876c.372-.0478.746-.0476 1.124.0005.383.0459.759.1459 1.126.2997.368.1538.702.351 1.004.5916.303.237.566.5038.789.8004.223.2967.406.6188.548.9664.143.3475.239.7053.288 1.0731.049.3679.049.7426 0 1.1241-.046.3831-.146.7584-.3 1.1259zm-1.541-.6448c.142-.3387.211-.6847.206-1.0381-.003-.357-.07-.6921-.201-1.0054-.127-.3154-.314-.6013-.562-.8578-.245-.2549-.537-.4532-.876-.595-.342-.1433-.69-.2126-1.043-.2081s-.689.0718-1.006.2017c-.315.1262-.601.3136-.857.562-.255.2447-.454.5365-.595.8752-.142.3387-.211.6848-.206 1.0381.006.3498.074.6831.204 1.0001.13.3169.317.6028.562.8577s.538.454.88.5973c.339.1418.685.2104 1.039.2058.357-.003.692-.0702 1.005-.2016.317-.1299.602-.3154.855-.5566.255-.2448.454-.5365.595-.8753z"/><path d="m127.489 25.5565.84-1.4572c.115-.1997.184-.41.207-.6309.029-.2223.016-.4374-.04-.6455-.056-.208-.153-.401-.289-.5787-.131-.1793-.297-.3264-.496-.4414-.2-.115-.412-.1853-.636-.2108-.219-.0269-.433-.0123-.641.0437-.208.0559-.402.1512-.584.2858-.175.1331-.321.2995-.436.4992l-.839 1.4573zm-.218 3.7487-1.457-.8393.839-1.4572-2.915-1.6786-.839 1.4573-1.452-.8364 2.515-4.3666c.232-.4028.525-.7364.881-1.0007.357-.2677.741-.4585 1.154-.5724.416-.112.844-.1427 1.284-.0923.443.0524.866.1945 1.269.4265s.736.5256 1.001.8806c.267.3571.457.7436.569 1.1597s.142.8457.089 1.2889c-.05.4398-.191.861-.423 1.2639z"/><path d="m136.971 31.0959c-.233.3094-.497.5774-.794.804-.291.2257-.604.4085-.939.5484-.332.1367-.676.232-1.034.2859-.356.0508-.714.0559-1.074.0153s-.714-.1281-1.063-.2625c-.343-.1352-.669-.3188-.978-.5508l-2.025-1.5187 5.041-6.7219 2.025 1.5187c.31.232.576.4953.799.7898.229.2938.414.6079.554.9422.139.3344.234.6809.282 1.0395.051.3554.056.7133.015 1.0734-.038.357-.126.7086-.263 1.0547-.132.3453-.314.6727-.546.982zm-1.346-1.0089c.209-.2782.351-.5789.428-.9024.08-.3211.095-.6414.047-.9609-.043-.3203-.148-.6262-.315-.9176-.165-.2891-.386-.5379-.664-.7465l-.67-.5027-3.023 4.0313.67.5027c.278.2086.578.3527.899.4324.326.0789.648.0957.965.0504.323-.0461.627-.1524.913-.3188.292-.1672.542-.3898.75-.6679z"/><path d="m136.933 36.6665-1.256-1.118 5.586-6.2765 1.256 1.1179z"/><path d="m143.19 42.9456-1.234-1.3083 1.799-6.1527-4.023 3.7958-1.154-1.2231 6.111-5.7662 1.235 1.3084-1.804 6.1567 4.028-3.7999 1.154 1.2232z"/><path d="m148.874 48.9261c-.5-.1151-.965-.3118-1.396-.5899-.428-.2805-.797-.6291-1.107-1.0459-.238-.3196-.426-.6597-.563-1.0204-.137-.3552-.227-.7172-.268-1.0861-.037-.3713-.03-.7415.021-1.1109.054-.3717.154-.7283.299-1.07.148-.344.34-.6691.574-.9753.237-.303.516-.5735.835-.8114.32-.2379.657-.4257 1.013-.5634.357-.1347.72-.2224 1.089-.2633.372-.0431.743-.0363 1.111.0205.372.0545.728.1542 1.07.2992s.663.3345.964.5684c.306.2347.578.5119.816.8315.31.4168.536.8715.679 1.3642.146.4904.202.9914.169 1.503l-1.7.1696c.056-.3577.042-.7128-.04-1.0654-.079-.355-.229-.6798-.448-.9743-.219-.2946-.482-.5299-.788-.706-.304-.173-.626-.2844-.965-.334-.335-.052-.675-.0377-1.019.0431-.341.0785-.659.2273-.954.4465-.297.2216-.534.4856-.71.792s-.289.629-.339.9679-.035.6788.043 1.0197c.081.344.231.6633.45.9579.126.1692.269.3185.429.448.159.1295.329.2395.508.33l1.918-1.4274.969 1.302z"/><path d="m153.869 59.387-2.688-5.2329 7.474-3.8391.768 1.4959-5.978 3.0707 1.92 3.737z"/><path d="m161.36 67.0363c-.374.1385-.753.2229-1.137.2531-.38.0325-.754.0172-1.123-.0458-.366-.0644-.719-.175-1.061-.3316-.341-.1567-.657-.3519-.948-.5856-.287-.2351-.543-.509-.767-.8216-.228-.3112-.412-.6536-.55-1.0272-.139-.3736-.223-.7527-.253-1.1373-.033-.3796-.018-.7539.045-1.1231.069-.3669.181-.7211.338-1.0625.156-.3414.351-.6576.585-.9484.239-.2886.512-.5461.82-.7727.312-.2243.655-.4057 1.029-.5443s.752-.2248 1.135-.2586c.385-.0302.76-.0131 1.125.0513.367.068.721.1804 1.063.3371.341.1566.656.3525.943.5876.288.2388.544.5126.767.8216.228.3112.411.6536.55 1.0272.138.3736.223.7526.253 1.1372.034.3833.018.7577-.046 1.1232s-.175.719-.332 1.0604c-.156.3415-.352.6558-.587.943s-.509.5429-.822.7672c-.311.2279-.653.4112-1.027.5498zm-.581-1.5657c.345-.1277.644-.3139.899-.5585.259-.2459.458-.5239.597-.8338.144-.3077.225-.6398.243-.9963.019-.3529-.035-.7015-.163-1.0457-.129-.348-.316-.6495-.56-.9045-.245-.2551-.523-.4541-.834-.5969-.308-.1442-.64-.2251-.997-.2429-.352-.0191-.701.0352-1.045.163-.345.1277-.644.3138-.899.5584-.252.2433-.449.5205-.592.8318-.142.3113-.223.6434-.243.9963-.019.3529.036.7033.165 1.0512.128.3443.314.644.559.899.246.2588.524.4577.834.5969.311.1428.641.2245.991.2449.352.0191.701-.0352 1.045-.1629z"/><path d="m162.226 73.8893 1.639-.3779c.224-.0517.426-.1442.603-.2774.183-.1303.331-.2867.445-.4694s.19-.3846.227-.6056c.042-.2181.037-.4395-.014-.664-.052-.2246-.145-.4277-.279-.6092-.13-.1787-.286-.3251-.468-.4393-.183-.1142-.385-.1918-.607-.2329-.217-.0381-.438-.0312-.663.0206l-1.639.3778zm-2.894 2.393-.377-1.6386 1.638-.3779-.755-3.2772-1.639.3778-.377-1.6329 4.911-1.1323c.453-.1044.897-.1166 1.332-.0366.439.0791.841.231 1.205.4556.366.2284.68.5208.942.8772.264.3602.448.7667.552 1.2197.105.453.117.8971.037 1.3325-.079.4391-.233.8414-.461 1.2068-.229.3653-.523.6797-.883.9432-.357.2625-.761.446-1.214.5505z"/><path d="m164.582 84.2796c-.384.0417-.761.0314-1.129-.0309-.364-.0588-.711-.1626-1.041-.3115-.327-.1492-.632-.3362-.916-.5609-.28-.225-.528-.483-.744-.7739s-.394-.6096-.534-.9559c-.135-.3429-.223-.7065-.265-1.091l-.273-2.5165 8.354-.9052.272 2.5165c.042.3845.031.7589-.031 1.1232-.059.3678-.162.7169-.311 1.0474s-.338.6358-.567.916c-.225.2798-.483.5278-.774.744-.287.2157-.604.3915-.95.5273-.343.1393-.706.2297-1.091.2714zm-.181-1.6718c.346-.0375.663-.1387.951-.3035.289-.161.534-.3683.735-.6218.204-.2501.356-.5357.455-.8568.099-.3172.13-.6486.092-.9942l-.09-.8331-5.01.5429.091.833c.037.3457.136.663.297.952.166.2925.373.5392.623.74.254.2043.539.3541.856.4494.321.0988.654.1295 1 .0921z"/><path d="m160.491 88.2777-.039-1.6812 8.4-.1946.039 1.6812z"/></g></svg>