<svg width="386" height="194" viewBox="0 0 386 194" fill="none" xmlns="http://www.w3.org/2000/svg">
<path fill-rule="evenodd" clip-rule="evenodd" d="M108.877 23.1074H88.2278L70.6398 70.8463L52.5948 23.1074H21.5303L48.0264 96.8858L21.5303 170.893H55.1073L70.6398 119.271L86.1723 170.893H108.877V141.163L93.0245 96.8858L108.877 52.7456V23.1074ZM119.521 170.892V23.1074H151.499V170.893L119.521 170.892ZM204.491 170.893H172.513V52.7996C172.513 33.005 181.955 23.1074 200.837 23.1074H217.74C228.856 23.1074 236.774 26.7065 241.495 33.9046C245.911 26.7065 253.83 23.1074 265.25 23.1074H278.499H282.153C301.023 23.1074 310.464 32.9915 310.477 52.7595L310.477 137.456C310.477 138.656 310.858 139.706 311.619 140.606C312.533 141.506 313.599 141.955 314.817 141.955H327.151C328.37 141.955 329.359 141.506 330.121 140.606C331.035 139.706 331.491 138.656 331.491 137.456V71.4136H363.47V141.201C363.47 160.995 354.028 170.893 335.146 170.893H310.477H306.822C287.992 170.893 278.551 161.05 278.499 141.365L278.499 50.1002C278.499 48.9004 278.041 47.8508 277.128 46.9512C276.366 46.0511 275.376 45.6015 274.158 45.6015H261.824C260.606 45.6015 259.54 46.0511 258.626 46.9512C257.865 47.8508 257.484 48.9004 257.484 50.1002V170.893H225.506V50.1002C225.506 48.9004 225.049 47.8508 224.135 46.9512C223.374 46.0511 222.384 45.6015 221.166 45.6015H208.831C207.613 45.6015 206.547 46.0511 205.634 46.9512C204.872 47.8508 204.491 48.9004 204.491 50.1002V170.893ZM363.469 23.1074H331.049V45.4233H363.469V23.1074Z" fill="white"/>
</svg>
